<?xml version="1.0"?>
<svg xmlns="http://www.w3.org/2000/svg" viewBox="0 0 24 24" enable-background="new 0 0 24 24">
    <path style="text-indent:0;text-align:start;line-height:normal;text-transform:none;block-progression:tb;-inkscape-font-specification:Bitstream Vera Sans" d="M 14.5 4 C 12 4 10 6 10 8.5 C 10 14.1 7.3 15.8 3 15 C 3 15 5.4644775 18.529297 10.46875 18.96875 C 10.182357 19.295266 10.0625 19.625 10.0625 19.625 L 11.9375 20.375 C 11.9375 20.375 11.89917 20.39132 12.03125 20.28125 C 12.163333 20.171181 12.408333 20 13 20 C 14.183333 20 15.40625 20.8125 15.40625 20.8125 L 16.59375 19.1875 C 16.59375 19.1875 15.767202 18.595301 14.5625 18.25 C 17.082558 16.887168 18.772663 13.735857 18.96875 9.34375 L 21 8 L 18.6875 6.90625 C 18.044568 5.2105731 16.431352 4 14.5 4 z M 16 7 C 16.6 7 17 7.4 17 8 C 17 8.6 16.6 9 16 9 C 15.4 9 15 8.6 15 8 C 15 7.4 15.4 7 16 7 z" overflow="visible" enable-background="accumulate" font-family="Bitstream Vera Sans"/>
</svg>
