<svg width="40" height="40" viewBox="0 0 40 40" fill="none" xmlns="http://www.w3.org/2000/svg">
<path fill-rule="evenodd" clip-rule="evenodd" d="M40 20C40 8.95884 31.0412 0 20 0C8.95884 0 0 8.95884 0 20C0 31.0412 8.95884 40 20 40C31.0412 40 40 31.0412 40 20ZM38.2567 20C38.2567 9.92736 30.0726 1.79177 20 1.79177C9.92736 1.79177 1.79177 9.92736 1.79177 20C1.79177 30.0726 9.92736 38.2567 20 38.2567C30.0726 38.2567 38.2567 30.0726 38.2567 20ZM20.0004 31.4769C26.3443 31.4769 31.4774 26.3438 31.4774 19.9999C31.4774 13.6561 26.3443 8.52295 20.0004 8.52295C13.6566 8.52295 8.52344 13.6561 8.52344 19.9999C8.52344 26.3438 13.6566 31.4769 20.0004 31.4769ZM29.7341 19.9999C29.7341 14.6246 25.3757 10.3147 20.0004 10.3147C14.6251 10.3147 10.3152 14.6246 10.3152 19.9999C10.3152 25.3752 14.6251 29.7336 20.0004 29.7336C25.3757 29.7336 29.7341 25.3752 29.7341 19.9999Z" fill="#FE9013"/>
</svg>
